<svg width="24" height="25" viewBox="0 0 24 25" fill="none" xmlns="http://www.w3.org/2000/svg">
<g clip-path="url(#clip0_519_1517)">
<path d="M21.08 7.50004C20.9072 7.20066 20.6598 6.95117 20.3618 6.77591C20.0639 6.60065 19.7256 6.5056 19.38 6.50004H6.58L6 4.24004C5.9414 4.02188 5.81066 3.82998 5.62908 3.69561C5.44749 3.56124 5.22576 3.4923 5 3.50004H3C2.73478 3.50004 2.48043 3.60539 2.29289 3.79293C2.10536 3.98047 2 4.23482 2 4.50004C2 4.76525 2.10536 5.01961 2.29289 5.20714C2.48043 5.39468 2.73478 5.50004 3 5.50004H4.24L7 15.76C7.0586 15.9782 7.18934 16.1701 7.37092 16.3045C7.55251 16.4388 7.77424 16.5078 8 16.5H17C17.1847 16.4995 17.3656 16.4478 17.5227 16.3507C17.6798 16.2536 17.8069 16.115 17.89 15.95L21.17 9.39004C21.3122 9.09205 21.3783 8.76351 21.3626 8.43372C21.3469 8.10393 21.2498 7.78316 21.08 7.50004ZM16.38 14.5H8.76L7.13 8.50004H19.38L16.38 14.5Z" fill="black"/>
<path d="M7.5 21.5C8.32843 21.5 9 20.8284 9 20C9 19.1716 8.32843 18.5 7.5 18.5C6.67157 18.5 6 19.1716 6 20C6 20.8284 6.67157 21.5 7.5 21.5Z" fill="black"/>
<path d="M17.5 21.5C18.3284 21.5 19 20.8284 19 20C19 19.1716 18.3284 18.5 17.5 18.5C16.6716 18.5 16 19.1716 16 20C16 20.8284 16.6716 21.5 17.5 21.5Z" fill="black"/>
</g>
<defs>
<clipPath id="clip0_519_1517">
<rect width="24" height="24" fill="white" transform="translate(0 0.5)"/>
</clipPath>
</defs>
</svg>
