<svg width="257" height="41" viewBox="0 0 257 41" fill="none" xmlns="http://www.w3.org/2000/svg">
<g clip-path="url(#clip0_30_1353)">
<path d="M35.3979 5.69811C36.1543 4.52023 37.0599 3.87599 38.1147 3.76539C39.1653 3.64926 39.2808 3.1571 38.4614 2.2889C36.2615 -0.0668556 32.9774 0.704571 34.3074 5.44926C34.3472 5.58781 34.4138 5.71047 34.5004 5.80496C34.5871 5.89945 34.6908 5.96244 34.8013 5.98764C34.9117 6.01284 35.0249 5.99936 35.1296 5.94854C35.2343 5.89773 35.3269 5.81137 35.3979 5.69811Z" stroke="#622B26" stroke-width="2"/>
<path d="M34.6782 1H36.4366C39.3888 1.81007 40.4964 3.04553 39.7596 4.70639C39.7038 4.83427 39.6114 4.94438 39.4931 5.02375C39.3749 5.10313 39.2357 5.14846 39.0921 5.15442C38.5801 5.18609 38.305 5.00507 38.2667 4.61135C38.262 4.57254 38.2674 4.53328 38.2825 4.49684C38.2976 4.4604 38.322 4.42786 38.3536 4.40194C38.3853 4.37601 38.4232 4.35746 38.4643 4.34784C38.5053 4.33821 38.5484 4.33779 38.5897 4.34661C38.8242 4.40092 39.0084 4.34209 39.1423 4.17012C39.3289 3.94384 39.2691 3.83523 38.9629 3.84428C37.8146 3.87143 37.3696 4.46201 36.4725 4.98471C36.0084 5.26077 35.7691 5.40558 35.7548 5.41916C35.0371 6.01652 34.5514 6.74966 34.2978 7.61855C34.2356 7.83578 34.262 8.04169 34.3768 8.23629C34.9892 9.25 35.8074 9.95824 36.8313 10.361C37.0132 10.4334 37.14 10.5556 37.2117 10.7276C37.75 12.0581 39.2356 14.882 40.9079 15.3164C41.6112 15.4975 42.2978 15.7509 42.9677 16.0767C42.9964 16.0858 43.006 16.1039 42.9964 16.131L42.939 16.294C42.9374 16.2995 42.9346 16.3046 42.9307 16.3091C42.9269 16.3135 42.9221 16.3171 42.9167 16.3197C42.9113 16.3222 42.9054 16.3237 42.8993 16.3239C42.8932 16.3242 42.8872 16.3232 42.8816 16.3211C42.183 15.9907 41.4318 15.7418 40.628 15.5744C39.2859 15.2825 38.1663 13.3682 37.4342 12.3228C37.4103 12.2866 37.3792 12.2572 37.3409 12.2346C37.2261 12.1803 37.1423 12.2097 37.0897 12.3228C37.0866 12.3268 37.0825 12.3299 37.0777 12.3319C37.0729 12.3338 37.0676 12.3344 37.0624 12.3337C37.0573 12.333 37.0524 12.331 37.0484 12.3279C37.0443 12.3248 37.0412 12.3207 37.0395 12.316C36.9629 11.2435 36.3218 10.4289 35.116 9.87226C34.805 9.72744 34.6974 9.81116 34.7931 10.1234C35.0658 11.0466 35.2117 11.9585 35.2309 12.8591C35.2347 12.9701 35.2748 13.077 35.3457 13.1647C35.4165 13.2524 35.5144 13.3165 35.6256 13.3478C35.9127 13.4293 36.1639 13.3705 36.3792 13.1714C36.4557 13.0989 36.5275 13.022 36.5945 12.9406C36.8289 12.6554 36.9079 12.6894 36.8313 13.0424L36.3002 15.4454L36.1136 15.4386C36.0706 15.4386 36.0371 15.4567 36.0132 15.4929L33.8744 18.6563C33.8062 18.7558 33.7141 18.8387 33.6057 18.8982C33.4972 18.9577 33.3755 18.9922 33.2503 18.9988C33.1251 19.0054 33 18.984 32.8852 18.9363C32.7705 18.8886 32.6692 18.8159 32.5897 18.7241C32.3888 18.4933 32.1376 18.4232 31.8361 18.5137C31.4055 18.6404 30.9821 18.749 30.5658 18.8396C30.317 18.8984 30.1543 18.8124 30.0778 18.5816C29.5562 17.0022 28.9318 15.7351 28.2045 14.7802C27.994 14.5041 28.061 14.4181 28.4055 14.5222C28.9031 14.6716 29.3768 14.4747 29.8266 13.9316C29.9988 13.7189 30.0155 13.4972 29.8768 13.2664C29.4892 12.6147 28.9557 12.126 28.2763 11.8001C28.258 11.7873 28.2448 11.769 28.2389 11.7481C28.2331 11.7273 28.2349 11.7052 28.2441 11.6854C28.2533 11.6657 28.2693 11.6495 28.2895 11.6395C28.3097 11.6295 28.3329 11.6263 28.3553 11.6304C29.0921 11.8884 29.6495 12.3771 30.0275 13.0967C30.0939 13.223 30.2102 13.3194 30.3513 13.3651C30.4923 13.4109 30.6468 13.4022 30.7811 13.3411C32.3529 12.6283 33.4653 11.2978 33.128 9.66861C33.0514 9.29299 33.1447 8.97394 33.4079 8.71146C33.4478 8.66956 33.4764 8.61875 33.4914 8.56326C33.5064 8.50777 33.5073 8.4492 33.494 8.39242C33.451 8.2295 33.3648 8.12315 33.2356 8.07337C33.116 8.02359 33.0012 8.0349 32.8911 8.10731C32.8002 8.16614 32.7787 8.24081 32.8266 8.33132C32.9318 8.54855 32.8624 8.62774 32.6184 8.56891C30.939 8.14125 29.3385 9.4989 28.183 10.4832C28.1304 10.5239 28.0825 10.5217 28.0395 10.4764H28.0323C27.9892 10.4312 27.9892 10.3859 28.0323 10.3406C29.4677 8.7884 31.3218 7.85388 33.5945 7.5371C33.7608 7.51395 33.9164 7.44655 34.0435 7.34267C34.1706 7.2388 34.2639 7.10269 34.3127 6.95007C34.3615 6.79744 34.3638 6.63453 34.3192 6.48015C34.2747 6.32577 34.1852 6.18622 34.061 6.07762C33.2644 5.392 33.1854 4.28552 33.1567 3.32837C33.1232 2.31919 33.6304 1.54306 34.6782 1ZM35.1519 5.31055C36.0132 4.34661 37.0443 3.81939 38.2452 3.72888C39.4414 3.63385 39.573 3.23108 38.64 2.52057C36.1352 0.592704 32.3959 1.22401 33.9103 5.1069C33.9556 5.22029 34.0314 5.32067 34.1301 5.39799C34.2288 5.47532 34.3469 5.52687 34.4726 5.54749C34.5983 5.56811 34.7273 5.55708 34.8465 5.5155C34.9657 5.47391 35.071 5.40324 35.1519 5.31055ZM33.616 9.65503C33.7093 12.6419 31.3624 13.28 29.2739 14.658C29.1768 14.7237 29.1011 14.8139 29.0554 14.9183C29.0097 15.0227 28.9959 15.1371 29.0156 15.2486C29.1304 15.8776 29.5084 16.2057 30.1495 16.2329C32.5108 16.3347 34.9366 14.5901 34.5706 12.1531C34.4749 11.5014 34.3648 10.8611 34.2404 10.232C34.2357 10.2005 34.2333 10.1709 34.2333 10.1438C34.2476 10.0397 34.2955 9.95598 34.3768 9.89262C34.4215 9.85839 34.4542 9.81227 34.4709 9.76023C34.4875 9.70819 34.4872 9.65262 34.4701 9.60073C34.4031 9.38803 34.2907 9.26584 34.1328 9.23416C33.7739 9.1708 33.6017 9.31109 33.616 9.65503Z" fill="black"/>
<path d="M35.3979 5.69811C35.3269 5.81137 35.2343 5.89773 35.1296 5.94854C35.0249 5.99936 34.9117 6.01284 34.8013 5.98764C34.6908 5.96244 34.5871 5.89945 34.5004 5.80496C34.4138 5.71047 34.3472 5.58781 34.3074 5.44926C32.9774 0.704571 36.2615 -0.0668555 38.4614 2.2889C39.2808 3.1571 39.1653 3.64926 38.1147 3.76539C37.0599 3.87599 36.1543 4.52023 35.3979 5.69811Z" fill="#BC4E43"/>
<path d="M37.3672 9.61409L37.2366 9.88148C37.1649 10.0323 37.0804 10.0392 36.9832 9.90205C36.1742 8.76848 35.8645 7.59834 36.0539 6.39163C36.1307 5.89341 36.292 5.87055 36.5377 6.32307C36.8603 6.91728 37.2852 7.34466 37.8126 7.6052C38.2887 7.84288 38.5729 7.72175 38.665 7.24181C38.7572 6.75273 39.0644 6.44648 39.5866 6.32307C39.9604 6.23622 40.0807 6.35507 39.9476 6.6796L39.5713 7.58463C39.4791 7.81774 39.497 8.04171 39.625 8.25654C39.8759 8.66792 39.8016 9.01074 39.4023 9.28499C39.3153 9.34331 39.2153 9.38497 39.1083 9.40737C39.0013 9.42978 38.8896 9.43247 38.7802 9.41526L38.0507 9.28499C37.9137 9.26159 37.7715 9.28141 37.6473 9.34122C37.5231 9.40102 37.4243 9.49724 37.3672 9.61409Z" fill="black"/>
<path d="M26.5766 12.6992C26.1716 13.2012 25.8947 13.6497 25.9582 13.7009C26.0217 13.7522 26.4016 13.3868 26.8066 12.8848C27.2117 12.3828 27.4886 11.9343 27.4251 11.883C27.3615 11.8318 26.9817 12.1972 26.5766 12.6992Z" fill="black"/>
<path d="M48.5559 20.1689C48.661 20.1737 48.7612 20.2042 48.8567 20.2607C48.9808 20.3313 49.0739 20.4301 49.136 20.5572L50.2818 22.9429C50.4202 23.2346 50.3319 23.4252 50.0168 23.5146C49.7065 23.5993 49.4057 23.7169 49.1145 23.8675C48.7708 24.0416 48.7923 24.1287 49.179 24.1287C51.1507 24.1287 52.8932 25.0062 54.4066 26.7614C54.5451 26.9214 54.5284 27.0602 54.3565 27.1778L54.1918 27.2908C54.0486 27.3896 54.0128 27.5166 54.0844 27.6719C55.5118 30.7164 55.0082 33.3209 52.5734 35.4855C52.1509 35.8596 51.5493 36.0925 51.0624 36.3889C50.69 36.6195 50.7258 36.7395 51.1698 36.7489C54.1154 36.8101 57.0396 36.7795 59.9422 36.6572C59.9756 36.6572 59.9923 36.6713 59.9923 36.6995L59.9995 36.8971C60.0043 36.963 59.9733 36.9983 59.9064 37.003C42.8151 38.33 25.7094 38.3323 8.58939 37.0101C8.53687 37.0101 8.513 36.9842 8.51778 36.9324V36.9254C8.52255 36.8218 8.57984 36.7701 8.68964 36.7701C12.6426 36.8924 16.5407 36.9113 20.3839 36.8266C21.0379 36.8124 21.0713 36.6642 20.4841 36.3819C19.4768 35.8925 18.6294 35.1561 17.9419 34.1726C17.7843 33.9468 17.5671 33.8338 17.2902 33.8338L11.8191 33.8056C11.7427 33.8056 11.7212 33.7703 11.7546 33.6997L13.0723 30.9329C13.1391 30.7964 13.2513 30.7282 13.4089 30.7282L19.8897 30.7776C20.1714 30.7823 20.422 30.8717 20.6417 31.0458C23.2913 33.1774 25.9696 32.5774 28.9701 31.7375C29.6242 31.5587 29.6122 31.4599 28.9343 31.4411C27.4352 31.4034 25.8574 31.4246 24.2008 31.5046C24.1697 31.5065 24.1386 31.5023 24.1092 31.4924C24.0798 31.4824 24.0526 31.4668 24.0293 31.4465C24.0061 31.4262 23.9871 31.4015 23.9735 31.3739C23.9599 31.3463 23.952 31.3164 23.9501 31.2858L23.943 31.0952C23.9382 31.0152 23.974 30.9729 24.0504 30.9682L29.4356 30.7211C29.5645 30.7164 29.6313 30.6505 29.6361 30.5235L29.6504 30.2694C29.6524 30.2354 29.6474 30.2014 29.6357 30.1694C29.6241 30.1374 29.606 30.108 29.5827 30.083C29.5593 30.058 29.531 30.0379 29.4996 30.0238C29.4682 30.0098 29.4343 30.0021 29.3998 30.0012L24.0432 29.8318C23.9837 29.8299 23.9272 29.8053 23.8858 29.7632C23.8443 29.721 23.8212 29.6646 23.8212 29.6059L23.8141 29.4294C23.8141 29.3871 23.8355 29.3659 23.8785 29.3659L29.5215 29.3024C29.6361 29.3024 29.6934 29.2483 29.6934 29.1401L29.7077 28.8154C29.7125 28.6648 29.6385 28.5919 29.4857 28.5966C27.7336 28.6577 25.9529 28.5142 24.1435 28.166C23.7043 28.086 23.6971 27.9825 24.122 27.8554C25.454 27.4531 27.6381 27.9543 29.0704 27.8978C29.4953 27.879 29.5096 27.7966 29.1133 27.6508C27.7145 27.1284 26.2775 26.8438 24.8023 26.7967C22.432 26.7261 20.9138 28.6954 18.5434 28.7024C14.2706 28.7166 10.024 28.7095 5.80369 28.6813C4.70087 28.6766 4.69132 28.566 5.77504 28.3495C8.22417 27.8649 10.4823 27.4672 12.5495 27.1567C12.6651 27.1383 12.7703 27.0807 12.8463 26.9941C12.9224 26.9075 12.9644 26.7975 12.9649 26.6838L12.9505 23.8675C12.9458 23.4346 13.1296 23.3358 13.502 23.5711C16.1946 25.3145 21.0498 26.7967 23.2197 23.6487C23.943 22.597 23.3557 21.2206 22.3317 20.5854C20.4125 19.3996 17.9562 19.2867 15.9296 20.3666C14.8411 20.9454 13.7454 21.6371 12.4707 21.63C9.50602 21.6206 6.55561 21.5947 3.61953 21.5524C2.80315 21.543 2.7936 21.4606 3.59088 21.3053C6.3551 20.7642 9.33176 20.2513 12.5209 19.7666C12.8026 19.7243 12.9458 19.5619 12.9505 19.2796C12.9696 18.1079 12.9673 16.8327 12.9434 15.454C12.9195 13.7459 13.7049 12.9295 15.2994 13.0048C18.393 13.1459 21.5583 13.0401 24.6591 13.033C24.9885 13.033 25.0888 13.1812 24.9598 13.4777C24.3965 14.7952 24.7092 16.0234 25.898 17.1621C26.0152 17.2731 26.0972 17.415 26.1341 17.5704C26.171 17.7258 26.1611 17.8881 26.1056 18.0373C25.3394 20.1619 24.6161 22.0394 25.6473 24.2839C25.9767 24.9992 26.4971 25.4274 27.2085 25.5686C29.0369 25.9309 31.0898 26.0838 33.3671 26.0273C34.1357 26.0085 34.4341 26.3661 34.2622 27.1002L33.1522 31.8999C33.1188 32.0551 33.1833 32.1492 33.3456 32.1822L33.5461 32.2175C33.9042 32.2834 34.1286 32.1445 34.2193 31.801L35.7231 25.9426C35.8186 25.5756 35.6754 25.4039 35.2934 25.4274C32.8157 25.5827 30.4477 25.4603 28.1895 25.0604C24.7665 24.4604 25.4755 20.896 26.6427 18.7079C26.8136 18.3854 26.857 18.013 26.7645 17.6632C26.6117 17.0845 26.3825 16.541 26.077 16.0328C26.0531 15.9904 26.0627 15.9598 26.1056 15.941C26.1295 15.9316 26.1534 15.9293 26.1772 15.934C26.2107 15.9434 26.2369 15.9622 26.256 15.9904C27.2634 17.4962 28.4044 18.9667 29.6791 20.4019C29.8653 20.6089 30.0944 20.736 30.3665 20.783C31.4503 20.9759 32.5626 20.8465 33.7037 20.3948C33.8898 20.3242 34.0784 20.3219 34.2694 20.3878L39.0101 22.0182C39.3831 22.1459 39.6942 22.4064 39.8823 22.7485C40.0705 23.0907 40.1221 23.4898 40.027 23.8675L38.5589 29.6341C38.4921 29.8976 38.5947 30.0506 38.8669 30.0929C39.4827 30.1917 40.0485 30.2976 40.5354 29.7894C43.2352 26.9943 44.2449 23.2887 45.0183 19.5125C45.0661 19.2678 44.9634 19.1384 44.7104 19.1243L44.3595 19.1031C44.0683 19.089 43.8773 18.9455 43.7866 18.6726C43.6863 18.3903 43.6505 18.1103 43.6792 17.8326C43.7078 17.5738 43.8534 17.4374 44.116 17.4233L44.7104 17.388C44.9873 17.3692 45.1592 17.228 45.226 16.9645C45.2976 16.6869 45.4432 16.4375 45.6628 16.2163C45.716 16.1624 45.7801 16.1201 45.8511 16.0922C45.922 16.0642 45.9983 16.0511 46.075 16.0538C46.1517 16.0564 46.2273 16.0747 46.2968 16.1076C46.3664 16.1404 46.4285 16.187 46.4792 16.2445C47.1619 17.0445 47.9783 17.7103 48.9283 18.242C49.0309 18.3 49.1191 18.3799 49.1863 18.4756C49.2535 18.5714 49.2981 18.6806 49.3166 18.7952C49.3352 18.9098 49.3273 19.0268 49.2936 19.1375C49.2598 19.2483 49.2011 19.3499 49.1217 19.4349C48.9546 19.6231 48.7493 19.7666 48.5058 19.8654C48.057 20.049 48.0738 20.1501 48.5559 20.1689ZM47.6894 30.9329C47.7992 30.5376 47.8112 30.1306 47.7253 29.7118C47.6584 29.3918 47.4674 29.2836 47.1524 29.3871L45.4265 29.9376C45.1974 30.0129 45.0708 30.1682 45.047 30.4035C44.6817 34.222 49.9022 35.7749 51.7928 32.4575C52.5089 31.2011 52.4134 29.8694 51.5064 28.4625C51.4467 28.3692 51.3576 28.2979 51.2527 28.2596C51.1479 28.2214 51.0331 28.2182 50.9263 28.2507L49.1718 28.766C48.723 28.8977 48.6347 29.1495 48.9068 29.5212L49.7089 30.6082C49.8569 30.8152 49.9094 31.0434 49.8664 31.2928C49.7805 31.7728 49.4797 32.0763 48.9641 32.2034C48.7866 32.2474 48.6006 32.245 48.4243 32.1964C48.248 32.1479 48.0876 32.0549 47.9589 31.9267C47.8302 31.7984 47.7377 31.6393 47.6904 31.465C47.6432 31.2907 47.6428 31.1073 47.6894 30.9329ZM46.5651 36.4454C44.2592 35.5066 42.9201 34.095 42.4475 31.5963C42.3711 31.2011 42.1825 31.1399 41.8817 31.4128C40.7288 32.4363 39.2034 33.855 37.5349 33.8409C34.5797 33.8127 31.615 33.8056 28.6407 33.8197C28.3352 33.8244 28.0964 33.9515 27.9246 34.2009C27.2562 35.1561 26.3873 35.8854 25.3179 36.3889C24.788 36.6383 24.8166 36.763 25.4038 36.763H46.5079C47.0664 36.763 47.0855 36.6572 46.5651 36.4454ZM24.1077 33.8479L21.7445 33.8691C21.2814 33.8691 21.2527 33.9774 21.6585 34.1938C22.5274 34.6502 23.3748 34.6432 24.2008 34.1726C24.5827 33.9562 24.5517 33.8479 24.1077 33.8479Z" fill="black"/>
<path d="M36 15.1001C36.2467 14.9472 36.4394 14.9695 36.5782 15.1669C38.4824 17.8614 40.0396 17.1639 42.4372 17.6894C43.1927 17.855 43.1876 17.9537 42.4218 17.9856C39.8238 18.0716 38.0969 17.8518 36 15.1001Z" fill="black"/>
<path d="M19.1673 20.0081C20.5945 19.9306 21.8301 20.4075 22.874 21.4387C22.9664 21.5341 23.008 21.6563 22.9987 21.8053C22.9941 21.8887 22.9526 21.9483 22.874 21.9841C22.8371 22.0079 22.8024 22.005 22.7701 21.9752C21.6615 21.1109 20.4167 20.5505 19.0356 20.2942C19.0079 20.2883 18.9964 20.2674 19.001 20.2317V20.2227C19.0102 20.0856 19.0657 20.0141 19.1673 20.0081Z" fill="black"/>
<path d="M12.2692 31.4234L3.62922 31.4083C3.52819 31.4081 3.44615 31.4899 3.44597 31.5909L3.4458 31.6894C3.44562 31.7904 3.52738 31.8725 3.62841 31.8726L12.2684 31.8877C12.3694 31.8879 12.4515 31.8061 12.4516 31.7051L12.4518 31.6066C12.452 31.5056 12.3702 31.4235 12.2692 31.4234Z" fill="black"/>
<path d="M0.0409299 33.4529C0.0136439 33.4529 0 33.4314 0 33.3886V33.3778C0 33.335 0.0136439 33.3135 0.0409299 33.3135C3.67906 33.0348 7.27853 32.9419 10.8393 33.0348C10.8632 33.0339 10.8868 33.0416 10.9084 33.0572C10.9301 33.0728 10.9492 33.0959 10.9643 33.1248C10.9795 33.1537 10.9902 33.1877 10.9957 33.2241C11.0012 33.2605 11.0014 33.2984 10.9962 33.335L10.9348 33.7851C10.9267 33.8485 10.9043 33.905 10.8717 33.9444C10.8391 33.9838 10.7985 34.0034 10.7575 33.9995C7.22395 33.8637 3.65177 33.6815 0.0409299 33.4529Z" fill="black"/>
<path d="M76.38 28.9803H72.89C72.0033 27.9536 71.21 26.8336 70.51 25.6203C69.83 24.4503 69.1 23.9703 67.74 24.2603C67.4067 24.3336 67.2333 24.5403 67.22 24.8803L67.06 28.9803H64V14.4003C66.5 14.3803 69 14.417 71.5 14.5103C76.64 14.7003 77.69 21.3303 73.6 23.4403C73.24 23.627 73.1667 23.8903 73.38 24.2303L76.38 28.9803ZM67.22 17.6803V21.0603C67.22 21.1638 67.2611 21.2629 67.3342 21.3361C67.4074 21.4092 67.5066 21.4503 67.61 21.4503H70.29C70.9394 21.4499 71.5623 21.2474 72.0217 20.8874C72.4811 20.5274 72.7394 20.0392 72.74 19.5303V19.2103C72.7403 18.958 72.6771 18.7082 72.5541 18.4752C72.4311 18.2421 72.2507 18.0304 72.0232 17.8521C71.7956 17.6738 71.5254 17.5324 71.2281 17.436C70.9307 17.3396 70.6119 17.2901 70.29 17.2903H67.61C67.5066 17.2903 67.4074 17.3314 67.3342 17.4045C67.2611 17.4777 67.22 17.5769 67.22 17.6803Z" fill="black"/>
<path d="M93.3498 28.9801H90.0898L88.9398 26.1801C88.8744 26.0206 88.7625 25.8842 88.6183 25.788C88.4741 25.6919 88.3041 25.6404 88.1298 25.6401L83.3198 25.6601C83.1502 25.6601 82.9838 25.709 82.8403 25.8011C82.6968 25.8933 82.5822 26.0247 82.5098 26.1801L81.1998 28.9801H78.0898L83.9198 15.2301C84.0771 14.8633 84.339 14.551 84.6728 14.3322C85.0065 14.1134 85.3974 13.9979 85.7965 14C86.1956 14.0022 86.5852 14.1219 86.9166 14.3442C87.248 14.5666 87.5065 14.8817 87.6598 15.2501L93.3498 28.9801ZM87.0998 22.7501C87.1492 22.7486 87.1975 22.7353 87.2406 22.7113C87.2838 22.6873 87.3206 22.6533 87.348 22.6122C87.3754 22.5712 87.3926 22.5241 87.3981 22.475C87.4037 22.426 87.3974 22.3763 87.3798 22.3301L85.9698 18.9601C85.946 18.9043 85.9062 18.8568 85.8556 18.8233C85.8049 18.7899 85.7455 18.7721 85.6848 18.7721C85.6241 18.7721 85.5648 18.7899 85.5141 18.8233C85.4635 18.8568 85.4237 18.9043 85.3998 18.9601L84.0398 22.3601C84.022 22.4071 84.0159 22.4576 84.0219 22.5075C84.028 22.5573 84.046 22.605 84.0746 22.6463C84.1031 22.6876 84.1412 22.7214 84.1857 22.7447C84.2302 22.768 84.2796 22.7802 84.3298 22.7801L87.0998 22.7501Z" fill="black"/>
<path d="M122.91 28.9803H112.35L111.99 14.7103C111.989 14.6727 111.995 14.6352 112.008 14.6001C112.022 14.565 112.042 14.5329 112.068 14.5058C112.094 14.4788 112.126 14.4572 112.16 14.4425C112.195 14.4278 112.232 14.4203 112.27 14.4203L122.36 14.4003C122.747 14.3936 122.943 14.587 122.95 14.9803L122.98 16.7403C122.98 17.0737 122.817 17.2403 122.49 17.2403L115.76 17.2203C115.627 17.2203 115.5 17.273 115.406 17.3668C115.313 17.4605 115.26 17.5877 115.26 17.7203L115.24 19.7003C115.24 19.8286 115.29 19.9517 115.38 20.0433C115.47 20.1349 115.592 20.1877 115.72 20.1903L121.52 20.2003C121.666 20.2003 121.806 20.2583 121.909 20.3614C122.012 20.4645 122.07 20.6044 122.07 20.7503L122.06 22.2703C122.053 22.837 121.77 23.117 121.21 23.1103L115.76 23.0103C115.447 23.0036 115.287 23.157 115.28 23.4703L115.23 25.4603C115.227 25.5276 115.238 25.5948 115.262 25.6578C115.286 25.7208 115.322 25.7783 115.369 25.8269C115.416 25.8754 115.472 25.9141 115.534 25.9404C115.596 25.9668 115.663 25.9804 115.73 25.9803H122.49C122.83 25.9803 122.993 26.1503 122.98 26.4903L122.91 28.9803Z" fill="black"/>
<path d="M139.21 28.9802H133.01L133 14.8102C133 14.7507 133.012 14.6918 133.035 14.6371C133.059 14.5824 133.093 14.5329 133.136 14.4918C133.179 14.4507 133.23 14.4187 133.285 14.3978C133.341 14.3769 133.401 14.3675 133.46 14.3702C136.3 14.4802 139.85 13.9702 142.44 15.2102C144.96 16.4102 146.39 18.8502 146.3 21.7002C146.18 25.8336 143.817 28.2602 139.21 28.9802ZM136.24 17.7402L136.22 25.5202C136.22 25.6326 136.264 25.7404 136.342 25.8208C136.421 25.9012 136.528 25.9476 136.64 25.9502L138.73 25.9602C139.282 25.9629 139.83 25.857 140.341 25.6488C140.852 25.4405 141.317 25.1339 141.709 24.7466C142.101 24.3592 142.413 23.8987 142.626 23.3914C142.838 22.8841 142.949 22.34 142.95 21.7902V21.5102C142.953 20.4034 142.514 19.3406 141.73 18.5551C140.947 17.7696 139.882 17.3255 138.77 17.3202L136.68 17.3102C136.623 17.3089 136.566 17.319 136.512 17.34C136.459 17.3611 136.41 17.3925 136.369 17.4326C136.328 17.4726 136.296 17.5205 136.274 17.5733C136.251 17.6262 136.24 17.6829 136.24 17.7402Z" fill="#BE1522"/>
<path d="M191.99 28.9801H189.15L183.4 14.6601C183.388 14.6356 183.383 14.6084 183.385 14.5812C183.388 14.554 183.397 14.5276 183.413 14.5046C183.429 14.4815 183.451 14.4626 183.477 14.4496C183.502 14.4366 183.531 14.4299 183.56 14.4301L186.69 14.4201C186.857 14.4201 186.967 14.4968 187.02 14.6501L190.23 23.4801C190.47 24.1401 190.713 24.1401 190.96 23.4801L194.22 14.8101C194.263 14.6895 194.342 14.5853 194.446 14.5119C194.55 14.4385 194.674 14.3994 194.8 14.4001L197.51 14.3801C197.55 14.3812 197.59 14.3916 197.625 14.4104C197.661 14.4293 197.691 14.4561 197.714 14.4885C197.736 14.5209 197.75 14.558 197.755 14.5966C197.76 14.6352 197.754 14.6742 197.74 14.7101L191.99 28.9801Z" fill="#BE1522"/>
<path d="M237.32 28.9804H234.33L234.21 23.6704C234.203 23.3499 234.107 23.0349 233.93 22.7604L228.97 14.9404C228.73 14.5604 228.833 14.3737 229.28 14.3804L231.78 14.4304C232.28 14.437 232.653 14.6537 232.9 15.0804L235.49 19.4804C235.737 19.907 235.99 19.907 236.25 19.4804L239.12 14.7604C239.187 14.6478 239.281 14.5546 239.394 14.4898C239.506 14.4249 239.632 14.3907 239.76 14.3904L242.77 14.3704C242.8 14.3711 242.829 14.3798 242.855 14.3954C242.88 14.4111 242.901 14.4333 242.916 14.4597C242.93 14.4861 242.937 14.5158 242.936 14.5458C242.935 14.5757 242.926 14.6049 242.91 14.6304C241.017 17.577 239.3 20.267 237.76 22.7004C237.58 22.9804 237.487 23.287 237.48 23.6204L237.32 28.9804Z" fill="#BE1522"/>
<path d="M103.5 28.9801H100.71L94.9702 14.8101C94.8569 14.5368 94.9469 14.4035 95.2402 14.4101L98.0602 14.4201C98.3136 14.4201 98.4869 14.5401 98.5802 14.7801L101.87 23.7101C102.05 24.1968 102.23 24.1968 102.41 23.7101L105.73 14.8201C105.837 14.5335 106.044 14.3901 106.35 14.3901L108.79 14.4201C109.19 14.4201 109.317 14.6068 109.17 14.9801L103.5 28.9801Z" fill="black"/>
<path d="M160.41 28.9802H149.73L149.72 14.9602C149.72 14.5935 149.904 14.4102 150.27 14.4102H160.22C160.407 14.4102 160.5 14.5068 160.5 14.7002L160.49 16.9802C160.49 17.1468 160.41 17.2302 160.25 17.2302H153.27C152.944 17.2302 152.78 17.3902 152.78 17.7102V19.7202C152.78 20.0268 152.934 20.1835 153.24 20.1902H159.18C159.241 20.1915 159.3 20.2046 159.356 20.229C159.411 20.2533 159.461 20.2883 159.503 20.3319C159.544 20.3756 159.577 20.427 159.599 20.4833C159.621 20.5397 159.632 20.5997 159.63 20.6602L159.6 22.7402C159.594 22.9735 159.474 23.0902 159.24 23.0902L153.25 23.0402C153.192 23.0388 153.133 23.0492 153.079 23.0707C153.024 23.0922 152.975 23.1244 152.933 23.1654C152.891 23.2064 152.857 23.2554 152.835 23.3094C152.812 23.3635 152.8 23.4215 152.8 23.4802L152.77 25.4902C152.764 25.8168 152.927 25.9802 153.26 25.9802H159.98C160.307 25.9802 160.5 26.1435 160.56 26.4702C160.707 27.3435 160.657 28.1802 160.41 28.9802Z" fill="#BE1522"/>
<path d="M174.06 28.9801H163.95L163.93 14.7501C163.93 14.4968 164.054 14.3735 164.3 14.3801L166.83 14.4201C166.934 14.4201 167.033 14.4612 167.106 14.5344C167.179 14.6075 167.22 14.7067 167.22 14.8101L167.2 25.4301C167.194 25.7701 167.36 25.9401 167.7 25.9401H173.7C174.014 25.9401 174.19 26.0935 174.23 26.4001C174.344 27.3401 174.287 28.2001 174.06 28.9801Z" fill="#BE1522"/>
<path d="M180.4 28.9802H177.32L177.27 14.6602C177.27 14.4935 177.353 14.4102 177.52 14.4102H180.22C180.387 14.4102 180.47 14.4935 180.47 14.6602L180.4 28.9802Z" fill="#BE1522"/>
<path d="M211.39 28.9802H200.58L200.56 15.0502C200.56 14.6235 200.77 14.4102 201.19 14.4102H211.22C211.407 14.4102 211.5 14.5068 211.5 14.7002L211.49 16.9802C211.49 17.0465 211.465 17.11 211.42 17.1569C211.375 17.2038 211.314 17.2302 211.25 17.2302H204.25C203.917 17.2302 203.747 17.3968 203.74 17.7302L203.73 19.8202C203.723 20.0668 203.843 20.1902 204.09 20.1902H210.23C210.417 20.1902 210.51 20.2802 210.51 20.4602L210.49 22.7502C210.49 22.9835 210.373 23.1002 210.14 23.1002L203.98 23.0302C203.833 23.0302 203.76 23.1035 203.76 23.2502L203.72 25.7102C203.713 25.8902 203.8 25.9802 203.98 25.9802H210.96C211.287 25.9802 211.47 26.1435 211.51 26.4702C211.623 27.3368 211.583 28.1735 211.39 28.9802Z" fill="#BE1522"/>
<path d="M227.23 28.9802H223.83C222.856 27.9535 222.01 26.7969 221.29 25.5102C220.59 24.2702 220.07 24.2302 218.79 24.1802C218.31 24.1602 218.063 24.3902 218.05 24.8702L217.95 28.9802H214.84L214.82 15.0202C214.82 14.5735 215.043 14.3569 215.49 14.3702C217.47 14.4169 219.57 14.4335 221.79 14.4202C227.16 14.4002 228.82 21.0102 224.48 23.4102C224.153 23.5902 224.086 23.8402 224.28 24.1602L227.23 28.9802ZM218.01 17.6102V21.1302C218.01 21.2124 218.042 21.2913 218.101 21.3494C218.159 21.4075 218.238 21.4402 218.32 21.4402H221.17C221.483 21.4404 221.792 21.3925 222.081 21.2991C222.37 21.2057 222.632 21.0687 222.853 20.896C223.075 20.7233 223.25 20.5181 223.369 20.2924C223.489 20.0666 223.55 19.8246 223.55 19.5802V19.1602C223.549 18.6672 223.298 18.1943 222.852 17.8456C222.406 17.4968 221.801 17.3006 221.17 17.3002H218.32C218.238 17.3002 218.159 17.3329 218.101 17.391C218.042 17.4491 218.01 17.528 218.01 17.6102Z" fill="#BE1522"/>
</g>
<defs>
<clipPath id="clip0_30_1353">
<rect width="257" height="41" fill="white"/>
</clipPath>
</defs>
</svg>
